<?xml version="1.0" encoding="utf-8"?>
<!-- Generator: Adobe Illustrator 16.0.4, SVG Export Plug-In . SVG Version: 6.00 Build 0)  -->
<!DOCTYPE svg PUBLIC "-//W3C//DTD SVG 1.1//EN" "http://www.w3.org/Graphics/SVG/1.1/DTD/svg11.dtd">
<svg version="1.1" id="Layer_1" xmlns="http://www.w3.org/2000/svg" xmlns:xlink="http://www.w3.org/1999/xlink" x="0px" y="0px"
	 width="43.012px" height="43.011px" viewBox="60.57 103.18 43.012 43.011" enable-background="new 60.57 103.18 43.012 43.011"
	 xml:space="preserve">
<g>
	<g>
		<path id="SVGID_1_" fill="#FFFFFF" d="M103.582,124.68c0,11.887-9.625,21.511-21.512,21.511c-11.877,0-21.5-9.624-21.5-21.511
			c0-11.876,9.623-21.5,21.5-21.5C93.957,103.179,103.582,112.803,103.582,124.68z"/>
	</g>
	<g>
		<defs>
			<path id="SVGID_2_" d="M103.582,124.68c0,11.887-9.625,21.511-21.512,21.511c-11.877,0-21.5-9.624-21.5-21.511
				c0-11.876,9.623-21.5,21.5-21.5C93.957,103.179,103.582,112.803,103.582,124.68z"/>
		</defs>
		<clipPath id="SVGID_3_">
			<use xlink:href="#SVGID_2_"  overflow="visible"/>
		</clipPath>
		<g clip-path="url(#SVGID_3_)">
			<g>
				<path fill="#233168" d="M87.762,145.762c3.954-0.967,7.471-2.637,10.325-5.361l-10.325-7.163V145.762z"/>
				<path fill="#233168" d="M66.932,140.401c2.768,2.725,6.371,4.395,10.282,5.361v-12.524L66.932,140.401z"/>
				<path fill="#233168" d="M77.215,103.355c-3.911,1.011-7.516,2.637-10.282,5.405l10.282,7.119V103.355z"/>
				<path fill="#233168" d="M61.724,132.051c0.22,0.527,0.329,1.055,0.593,1.626l2.482-1.626H61.724z"/>
				<path fill="#233168" d="M98.088,108.76c-2.854-2.769-6.371-4.395-10.325-5.405v12.524L98.088,108.76z"/>
				<path fill="#233168" d="M103.143,117.198c-0.088-0.659-0.222-1.23-0.439-1.758l-2.549,1.758H103.143z"/>
				<path fill="#233168" d="M62.316,115.44c-0.264,0.527-0.373,1.099-0.593,1.758H64.8L62.316,115.44z"/>
				<path fill="#233168" d="M102.703,133.677c0.219-0.571,0.353-1.099,0.439-1.626h-2.988L102.703,133.677z"/>
				<path fill="#D0202D" d="M85.652,146.202v-17.139H103.8c0.31-1.538,0.88-2.988,0.88-4.482c0-1.582-0.57-2.988-0.88-4.395H85.652
					v-17.139c-1.055-0.264-2.066-0.703-3.164-0.703c-1.143,0-2.154,0.439-3.188,0.703v17.139h-18.17
					c-0.285,1.406-0.879,2.812-0.879,4.395c0,1.494,0.594,2.944,0.879,4.482h18.172v17.139c1.031,0.088,2.044,0.527,3.187,0.527
					C83.586,146.729,84.598,146.29,85.652,146.202z"/>
				<path fill="#D0202D" d="M71.896,132.051l-7.316,5.01c0.549,0.791,0.945,1.67,1.538,2.197l10.481-7.207H71.896z"/>
				<path fill="#D0202D" d="M71.896,117.198l-7.316-5.186c-0.506,0.791-1.099,1.45-1.538,2.329l4.108,2.856L71.896,117.198
					L71.896,117.198z"/>
				<path fill="#D0202D" d="M93.035,132.051l7.25,5.01c0.66-0.747,1.1-1.406,1.539-2.285l-3.955-2.725H93.035L93.035,132.051z"/>
				<path fill="#D0202D" d="M93.035,117.198l7.25-5.186c-0.438-0.747-0.879-1.494-1.449-2.197l-10.547,7.383H93.035z"/>
			</g>
		</g>
	</g>
</g>
<g>
	<g>
		<defs>
			<path id="SVGID_4_" d="M149.878,125.399c0,11.882-9.624,21.506-21.511,21.506c-11.877,0-21.5-9.624-21.5-21.506
				c0-11.876,9.623-21.5,21.5-21.5C140.254,103.899,149.878,113.523,149.878,125.399z"/>
		</defs>
		<clipPath id="SVGID_5_">
			<use xlink:href="#SVGID_4_"  overflow="visible"/>
		</clipPath>
		<path clip-path="url(#SVGID_5_)" fill="#FCFBF6" d="M128.367,103.146c-9.668,0-17.688,6.284-20.765,14.854h41.527
			C146.055,109.431,138.035,103.146,128.367,103.146z"/>
	</g>
	<g>
		<defs>
			<path id="SVGID_6_" d="M149.878,125.399c0,11.882-9.624,21.506-21.511,21.506c-11.877,0-21.5-9.624-21.5-21.506
				c0-11.876,9.623-21.5,21.5-21.5C140.254,103.899,149.878,113.523,149.878,125.399z"/>
		</defs>
		<clipPath id="SVGID_7_">
			<use xlink:href="#SVGID_6_"  overflow="visible"/>
		</clipPath>
		<path clip-path="url(#SVGID_7_)" fill="#3A53A4" d="M150.604,125.383c0-2.637-0.594-5.01-1.474-7.383h-41.527
			c-0.813,2.373-1.473,4.746-1.473,7.383c0,2.637,0.658,5.098,1.473,7.427h41.527C150.01,130.48,150.604,128.02,150.604,125.383z"/>
	</g>
	<g>
		<defs>
			<path id="SVGID_8_" d="M149.878,125.399c0,11.882-9.624,21.506-21.511,21.506c-11.877,0-21.5-9.624-21.5-21.506
				c0-11.876,9.623-21.5,21.5-21.5C140.254,103.899,149.878,113.523,149.878,125.399z"/>
		</defs>
		<clipPath id="SVGID_9_">
			<use xlink:href="#SVGID_8_"  overflow="visible"/>
		</clipPath>
		<path clip-path="url(#SVGID_9_)" fill="#ED2224" d="M128.367,147.663c9.668,0,17.688-6.196,20.764-14.854h-41.527
			C110.679,141.467,118.699,147.663,128.367,147.663"/>
	</g>
</g>
</svg>
