<?xml version="1.0" encoding="utf-8"?>
<!-- Generator: Adobe Illustrator 16.0.4, SVG Export Plug-In . SVG Version: 6.00 Build 0)  -->
<!DOCTYPE svg PUBLIC "-//W3C//DTD SVG 1.1//EN" "http://www.w3.org/Graphics/SVG/1.1/DTD/svg11.dtd">
<svg version="1.1" id="Layer_1" xmlns="http://www.w3.org/2000/svg" xmlns:xlink="http://www.w3.org/1999/xlink" x="0px" y="0px"
	 width="4.055px" height="4.051px" viewBox="0 0 4.055 4.051" enable-background="new 0 0 4.055 4.051" xml:space="preserve">
<g>
	<g>
		<g>
			<polygon fill="none" points="0,2.019 0,2.019 0,2.019 			"/>
		</g>
		<g>
			<path fill="#ED2024" d="M4.055,2.019C4.055,0.906,3.145,0,2.031,0C0.906,0,0.008,0.906,0,2.019l0,0
				c0.008,1.122,0.906,2.032,2.031,2.032C3.145,4.051,4.055,3.141,4.055,2.019z M1.219,1.746l-0.34-0.254l-0.34,0.254l0.125-0.41
				L0.32,1.086h0.43L0.879,0.68l0.137,0.406l0.422,0.008L1.094,1.335L1.219,1.746z M1.719,0.555l0.125,0.055L1.934,0.5L1.922,0.641
				l0.129,0.055L1.914,0.73L1.906,0.871L1.836,0.75L1.688,0.781l0.102-0.105L1.719,0.555z M1.922,2.097L1.914,2.253L1.836,2.125
				L1.699,2.164l0.09-0.105L1.711,1.941L1.844,1.98l0.09-0.105L1.922,2.019l0.141,0.039L1.922,2.097z M2.168,0.902L2.266,1
				l0.125-0.062L2.324,1.062L2.43,1.164L2.285,1.141L2.227,1.266L2.195,1.125L2.062,1.102l0.125-0.062L2.168,0.902z M2.375,1.824
				L2.258,1.746L2.148,1.824l0.039-0.137L2.07,1.609h0.137l0.039-0.137l0.051,0.129l0.145-0.012L2.324,1.687L2.375,1.824z"/>
		</g>
		<g>
			<polygon fill="#FFDE00" points="2.297,1.601 2.246,1.472 2.207,1.609 2.07,1.609 2.188,1.687 2.148,1.824 2.258,1.746 
				2.375,1.824 2.324,1.687 2.441,1.589 			"/>
		</g>
		<g>
			<polygon fill="#FFDE00" points="1.016,1.086 0.879,0.68 0.75,1.086 0.32,1.086 0.664,1.335 0.539,1.746 0.879,1.492 1.219,1.746 
				1.094,1.335 1.438,1.094 			"/>
		</g>
		<g>
			<polygon fill="#FFDE00" points="1.934,1.875 1.844,1.98 1.711,1.941 1.789,2.058 1.699,2.164 1.836,2.125 1.914,2.253 
				1.922,2.097 2.062,2.058 1.922,2.019 			"/>
		</g>
		<g>
			<polygon fill="#FFDE00" points="1.836,0.75 1.906,0.871 1.914,0.73 2.051,0.695 1.922,0.641 1.934,0.5 1.844,0.609 1.719,0.555 
				1.789,0.676 1.688,0.781 			"/>
		</g>
		<g>
			<polygon fill="#FFDE00" points="2.195,1.125 2.227,1.266 2.285,1.141 2.43,1.164 2.324,1.062 2.391,0.938 2.266,1 2.168,0.902 
				2.188,1.039 2.062,1.102 			"/>
		</g>
	</g>
</g>
</svg>
