<?xml version="1.0" encoding="utf-8"?>
<!-- Generator: Adobe Illustrator 21.1.0, SVG Export Plug-In . SVG Version: 6.00 Build 0)  -->
<svg version="1.1" id="Capa_1" xmlns="http://www.w3.org/2000/svg" xmlns:xlink="http://www.w3.org/1999/xlink" x="0px" y="0px"
	 viewBox="0 0 119.9 119.9" style="enable-background:new 0 0 24 24;" xml:space="preserve">
<g>
	<g>
		<path fill="#eea236" d="M92.7,119.9H28.5c-6,0-11-4.9-11-11L8.4,66.2c-3.4-1.7-5.7-5.2-5.7-9.1c0-5.7,4.6-10.3,10.3-10.3h93.9
			c5.7,0,10.3,4.6,10.3,10.3c0,3.3-1.6,6.4-4.3,8.3l-9.3,44.2C103.6,115,98.7,119.9,92.7,119.9z M13,53.7c-1.9,0-3.5,1.6-3.5,3.5
			c0,1.5,1.1,2.9,2.7,3.3c1.2,0.3,2.2,1.3,2.5,2.6l9.5,45.2c0.1,3,2,4.9,4.3,4.9h64.2c2.3,0,4.2-1.9,4.2-4.2l9.7-46.3
			c0.2-1,0.9-1.9,1.8-2.3c1.2-0.6,2-1.8,2-3.1c0-1.9-1.6-3.5-3.5-3.5L13,53.7L13,53.7z"/>
		<path fill="#eea236" d="M92.7,120.9H28.5c-6.6,0-11.9-5.3-12-11.8l-9-42.1c-3.6-2-5.8-5.7-5.8-9.7C1.7,51,6.8,45.9,13,45.9h93.9
			c6.2,0,11.3,5.1,11.3,11.3c0,3.5-1.6,6.7-4.4,8.8l-9.2,43.7c0,2.7-1.2,5.4-3.2,7.5C99,119.6,95.9,120.9,92.7,120.9z M13,47.9
			c-5.1,0-9.3,4.2-9.3,9.3c0,3.5,2,6.6,5.1,8.2l0.4,0.2l9.2,43.4c0,5.5,4.5,10,10,10h64.2c2.7,0,5.3-1.1,7.2-3
			c1.7-1.7,2.7-4,2.6-6.2l0-0.1l0-0.1l9.4-44.5l0.3-0.2c2.5-1.8,3.9-4.5,3.9-7.5c0-5.1-4.2-9.3-9.3-9.3H13z M92.7,114.1H28.5
			c-3,0-5.2-2.4-5.3-5.8l-9.5-45.1c-0.2-0.9-0.9-1.6-1.7-1.8c-2-0.5-3.5-2.3-3.5-4.3c0-2.5,2-4.5,4.5-4.5l93.9,0
			c2.5,0,4.5,2,4.5,4.5c0,1.7-1,3.2-2.6,4c-0.6,0.3-1.1,0.9-1.3,1.6L97.9,109C97.8,111.9,95.5,114.1,92.7,114.1z M13,54.7
			c-1.4,0-2.5,1.1-2.5,2.5c0,1.1,0.8,2,1.9,2.3c1.6,0.4,2.9,1.7,3.2,3.3l9.6,45.4c0.1,2.3,1.4,3.9,3.3,3.9h64.2
			c1.8,0,3.2-1.4,3.2-3.2l0-0.2l9.7-46.3c0.3-1.3,1.1-2.4,2.3-3c0.9-0.4,1.5-1.3,1.5-2.2c0-1.4-1.1-2.5-2.5-2.5L13,54.7z"/>
	</g>
	<g>
		<path fill="#eea236" d="M28,34.9C30.3,19.2,43.7,7.1,60,7.1c16.3,0,29.7,12.1,32,27.7c0.3,5.3,7.2,4.5,7.2,0C96.9,15.2,80.3,0,60,0
			C39.8,0,23.1,15.2,20.8,34.9C20.8,40.4,28.1,40.6,28,34.9z"/>
		<path fill="#eea236" d="M24.5,40.1c-0.8,0-1.5-0.2-2.2-0.6c-1.6-0.9-2.5-2.6-2.5-4.7l0-0.1C22.2,14.4,39.5-1,60-1c20.5,0,37.8,15.4,40.2,35.8
			l0,0.1c0,3-2.4,4.6-4.6,4.7c-2.1,0.1-4.4-1.4-4.6-4.6C88.8,19.7,75.5,8.1,60,8.1c-15.4,0-28.7,11.5-31,26.8c0,2-0.8,3.7-2.3,4.6
			C26,39.9,25.3,40.1,24.5,40.1z M21.8,34.9c0,1.3,0.5,2.3,1.4,2.9c0.8,0.4,1.7,0.4,2.5,0c0.9-0.5,1.3-1.5,1.3-2.9l0-0.1l0-0.1
			C29.4,18.4,43.6,6.1,60,6.1c16.5,0,30.6,12.3,33,28.6c0.1,2.2,1.4,2.9,2.6,2.8c1.3,0,2.6-1,2.6-2.6C95.9,15.6,79.5,1,60,1
			C40.5,1,24.1,15.6,21.8,34.9z"/>
	</g>
	<g>
		<path fill="#eea236" d="M91.8,79.6L75.5,63.4c-1-1-2.6-1-3.6,0c-1,1-1,2.6,0,3.6l11.9,11.9H32.1c-1.4,0-2.6,1.1-2.6,2.6s1.1,2.6,2.6,2.6h51.7
			L71.9,95.9c-1,1-1,2.6,0,3.6c0.5,0.5,1.2,0.8,1.8,0.8s1.3-0.2,1.8-0.8l16.2-16.2C92.8,82.3,92.8,80.6,91.8,79.6z"/>
		<path fill="#eea236" d="M73.7,101.7c-1.1,0-2.1-0.4-2.9-1.2c-0.8-0.8-1.2-1.8-1.2-2.9c0-1.1,0.4-2.1,1.2-2.9l9.3-9.3H32.1c-2.2,0-4.1-1.8-4.1-4.1
			s1.8-4.1,4.1-4.1h48.1l-9.3-9.3c-0.8-0.8-1.2-1.8-1.2-2.9s0.4-2.1,1.2-2.9c1.6-1.6,4.1-1.6,5.7,0l16.2,16.2
			c0.8,0.8,1.2,1.8,1.2,2.8c0,1.1-0.4,2.1-1.2,2.9l-16.2,16.2C75.9,101.3,74.8,101.7,73.7,101.7z M32.1,80.4c-0.6,0-1.1,0.5-1.1,1.1
			s0.5,1.1,1.1,1.1h55.4L73,96.9c-0.2,0.2-0.3,0.5-0.3,0.7c0,0.3,0.1,0.5,0.3,0.7c0.4,0.4,1.1,0.4,1.4,0l16.2-16.2
			c0.2-0.2,0.3-0.5,0.3-0.8c0-0.3-0.1-0.5-0.3-0.7L74.5,64.5c-0.4-0.4-1.1-0.4-1.5,0c-0.2,0.2-0.3,0.5-0.3,0.7s0.1,0.5,0.3,0.7
			l14.4,14.4H32.1z"/>
	</g>
</g>
</svg>
